<svg width="350" height="350" viewBox="0 0 350 350" fill="none" xmlns="http://www.w3.org/2000/svg">
<mask id="mask0_1_325" style="mask-type:alpha" maskUnits="userSpaceOnUse" x="0" y="0" width="350" height="350">
<circle cx="175" cy="175" r="175" fill="#C4C4C4"/>
</mask>
<g mask="url(#mask0_1_325)">
<!-- <rect width="350" height="350" fill="white"/> -->
<mask id="mask1_1_325" style="mask-type:alpha" maskUnits="userSpaceOnUse" x="0" y="0" width="350" height="350">
<path fill-rule="evenodd" clip-rule="evenodd" d="M42 0H308C331.196 0 350 18.804 350 42V308C350 331.196 331.196 350 308 350H42C18.804 350 0 331.196 0 308V42C0 18.804 18.804 0 42 0ZM302.56 7H46.44C24.1056 7 6 25.1056 6 47.44V303.56C6 325.894 24.1056 344 46.44 344H302.56C324.894 344 343 325.894 343 303.56V47.44C343 25.1056 324.894 7 302.56 7Z" fill="#1C1B20"/>
<path fill-rule="evenodd" clip-rule="evenodd" d="M42 0C18.804 0 0 18.804 0 42V308C0 331.196 18.804 350 42 350H308C331.196 350 350 331.196 350 308V42C350 18.804 331.196 0 308 0H42ZM296.48 15H52.52C31.246 15 14 32.246 14 53.52V297.48C14 318.754 31.246 336 52.52 336H296.48C317.754 336 335 318.754 335 297.48V53.52C335 32.246 317.754 15 296.48 15Z" fill="#1C1B20"/>
<path fill-rule="evenodd" clip-rule="evenodd" d="M52.52 15H296.48C317.754 15 335 32.246 335 53.52V297.48C335 318.754 317.754 336 296.48 336H52.52C31.246 336 14 318.754 14 297.48V53.52C14 32.246 31.246 15 52.52 15ZM118.319 268.023L193.024 193.318L212.251 212.546L137.546 287.25L118.319 268.023ZM192.342 268.054L211.553 248.843L230.718 268.009L211.507 287.22L192.342 268.054ZM118 83.2257L137.226 64L156.466 83.2402L137.24 102.466L118 83.2257ZM247.811 138.518L267.024 119.305L286.258 138.539L267.045 157.752L247.811 138.518ZM62.8672 212.508L82.138 193.237L101.299 212.398L82.0282 231.669L62.8672 212.508ZM82.0693 119.366L156.355 193.652L137.152 212.855L62.866 138.569L82.0693 119.366ZM211.583 137.737L286.286 212.44L267.011 231.715L192.308 157.012L211.583 137.737ZM137 138.681L211.681 64L230.741 83.0597L156.06 157.741L137 138.681Z" fill="#1C1B20"/>
</mask>
<g mask="url(#mask1_1_325)">
<rect x="-69" y="-69" width="488" height="463" rx="29" fill="url(#paint0_linear_1_325)"/>
</g>
</g>
<defs>
<linearGradient id="paint0_linear_1_325" x1="175" y1="-69" x2="175" y2="394" gradientUnits="userSpaceOnUse">
<stop stop-color="#FF0000"/>
<stop offset="1" stop-color="#FFE073" stop-opacity="0.92"/>
</linearGradient>
</defs>
</svg>