<svg width="350" height="350" viewBox="0 0 350 350" fill="none" xmlns="http://www.w3.org/2000/svg">
<path d="M0 42C0 18.804 18.804 0 42 0H308C331.196 0 350 18.804 350 42V308C350 331.196 331.196 350 308 350H42C18.804 350 0 331.196 0 308V42Z" fill="url(#paint0_linear_1050_1844)"/>
<path fill-rule="evenodd" clip-rule="evenodd" d="M42 0H308C331.196 0 350 18.804 350 42V308C350 331.196 331.196 350 308 350H42C18.804 350 0 331.196 0 308V42C0 18.804 18.804 0 42 0ZM302.56 7H46.44C24.1056 7 6 25.1056 6 47.44V303.56C6 325.894 24.1056 344 46.44 344H302.56C324.894 344 343 325.894 343 303.56V47.44C343 25.1056 324.894 7 302.56 7Z" fill="#17171C"/>
<path fill-rule="evenodd" clip-rule="evenodd" d="M52.52 15H296.48C317.754 15 335 32.246 335 53.52V297.48C335 318.754 317.754 336 296.48 336H52.52C31.246 336 14 318.754 14 297.48V53.52C14 32.246 31.246 15 52.52 15ZM193.024 193.318L118.319 268.023L137.546 287.25L212.251 212.546L193.024 193.318ZM211.553 248.843L192.342 268.054L211.507 287.22L230.718 268.009L211.553 248.843ZM137.226 64L118 83.2257L137.24 102.466L156.466 83.2402L137.226 64ZM267.024 119.305L247.811 138.518L267.045 157.752L286.258 138.539L267.024 119.305ZM82.138 193.237L62.8672 212.508L82.0282 231.669L101.299 212.398L82.138 193.237ZM156.355 193.652L82.0693 119.366L62.866 138.569L137.152 212.855L156.355 193.652ZM286.286 212.44L211.583 137.737L192.308 157.012L267.011 231.715L286.286 212.44ZM211.681 64L137 138.681L156.06 157.741L230.741 83.0597L211.681 64Z" fill="#17171C"/>
<defs>
<linearGradient id="paint0_linear_1050_1844" x1="175" y1="0" x2="175" y2="350" gradientUnits="userSpaceOnUse">
<stop stop-color="#FF0000"/>
<stop offset="1" stop-color="#FFE073" stop-opacity="0.92"/>
</linearGradient>
</defs>
</svg>
