<?xml version="1.0" standalone="no"?>
<!DOCTYPE svg PUBLIC "-//W3C//DTD SVG 20010904//EN"
 "http://www.w3.org/TR/2001/REC-SVG-20010904/DTD/svg10.dtd">
<svg version="1.0" xmlns="http://www.w3.org/2000/svg"
 width="350.000000pt" height="350.000000pt" viewBox="0 0 350.000000 350.000000"
 preserveAspectRatio="xMidYMid meet">
<metadata>
Created by potrace 1.14, written by Peter Selinger 2001-2017
</metadata>
<g transform="translate(0.000000,350.000000) scale(0.100000,-0.100000)"
fill="#000000" stroke="none">
<path d="M1589 3496 c-2 -2 -29 -7 -59 -10 -194 -22 -414 -91 -590 -184 -77
-41 -239 -147 -295 -193 -78 -65 -232 -225 -291 -304 -51 -66 -174 -265 -174
-280 0 -2 -13 -32 -29 -67 -67 -142 -113 -309 -139 -498 -9 -72 -9 -336 1
-424 9 -87 49 -264 76 -336 11 -30 27 -75 36 -99 23 -63 105 -225 116 -229 5
-2 9 -9 9 -15 0 -13 87 -142 140 -208 85 -106 363 -359 377 -345 3 2 15 -6 28
-18 23 -21 70 -47 205 -116 81 -41 273 -109 353 -125 15 -3 37 -7 50 -10 103
-21 202 -29 352 -29 136 0 280 10 298 21 4 2 26 7 48 9 22 3 67 14 100 24 34
11 65 20 70 20 4 0 20 5 36 12 15 6 35 12 43 14 8 2 23 7 35 12 11 5 47 21 80
36 33 14 59 30 58 36 -2 5 3 7 11 4 26 -10 210 108 346 222 134 113 305 310
357 413 10 20 21 38 24 41 27 22 161 334 175 410 3 14 9 39 14 55 5 17 11 47
15 69 3 21 7 41 10 45 18 30 27 383 13 511 -6 53 -32 189 -52 270 -12 47 -81
223 -117 296 -42 85 -150 255 -211 329 -60 74 -223 231 -293 283 -38 28 -74
55 -80 60 -30 24 -147 89 -246 137 -110 52 -300 116 -384 129 -22 4 -47 9 -55
11 -8 3 -31 7 -50 10 -43 7 -405 16 -411 11z m-122 -732 l96 -95 -96 -97 -96
-96 -90 91 c-50 50 -91 96 -91 101 0 8 166 187 178 191 1 1 46 -42 99 -95z
m470 -465 c-203 -203 -372 -369 -375 -369 -4 0 -48 42 -99 92 l-93 93 372 372
373 373 96 -96 96 -95 -370 -370z m-743 -368 l369 -370 -92 -91 c-51 -50 -97
-90 -103 -88 -5 2 -174 168 -374 368 l-364 365 92 93 c51 50 95 92 98 92 3 0
171 -166 374 -369z m1574 276 l92 -93 -78 -79 c-122 -124 -99 -123 -208 -14
l-94 94 92 92 c51 51 95 93 98 93 3 0 47 -42 98 -93z m-256 -481 l350 -349
-93 -93 c-52 -52 -96 -94 -99 -94 -4 0 -696 689 -739 736 -3 2 37 47 89 99
l94 95 24 -23 c14 -12 182 -179 374 -371z m-1591 -257 l91 -91 -38 -40 c-56
-58 -145 -143 -153 -146 -5 -2 -157 144 -189 182 -4 5 181 186 190 186 5 0 49
-41 99 -91z m1086 20 c37 -37 78 -78 91 -91 l23 -25 -359 -359 c-197 -197
-365 -365 -374 -371 -13 -11 -29 1 -107 79 -50 50 -90 95 -89 100 5 15 732
738 740 736 3 -2 37 -33 75 -69z m203 -573 c49 -49 90 -92 90 -96 0 -8 -174
-182 -183 -184 -6 -1 -151 136 -176 168 -13 16 -6 26 79 111 52 52 95 93 97
92 1 -1 43 -42 93 -91z"/>
</g>
</svg>
